<svg width="676" height="700" viewBox="0 0 676 700" fill="none" xmlns="http://www.w3.org/2000/svg">
<path d="M158.698 375.138C154.015 375.138 150.457 374.916 148.025 374.472C145.593 374.117 143.882 373.452 142.891 372.475C141.901 371.499 141.405 370.078 141.405 368.214C141.405 365.818 142.486 363.909 144.648 362.489C146.539 361.424 147.71 359.826 148.16 357.696C148.701 355.565 148.971 352.148 148.971 347.443V332.264C148.971 327.648 147.935 324.941 145.864 324.142C144.242 323.343 143.027 322.589 142.216 321.879C141.405 321.08 141 319.97 141 318.55C141 316.775 141.495 315.399 142.486 314.422C143.567 313.357 145.143 312.336 147.215 311.36C150.277 309.94 153.835 308.83 157.888 308.031C162.031 307.143 166.039 306.7 169.912 306.7C172.704 306.7 174.776 307.188 176.127 308.164C177.568 309.141 178.288 310.916 178.288 313.49V347.31C178.288 352.015 178.559 355.432 179.099 357.562C179.639 359.693 180.81 361.335 182.612 362.489C184.863 363.998 185.989 365.906 185.989 368.214C185.989 370.078 185.494 371.499 184.503 372.475C183.602 373.452 181.936 374.117 179.504 374.472C177.072 374.916 173.515 375.138 168.831 375.138H158.698ZM162.481 301.507C156.987 301.507 152.574 300.353 149.241 298.045C145.909 295.737 144.242 292.719 144.242 288.991C144.242 285.351 145.909 282.466 149.241 280.336C152.574 278.117 156.987 277.007 162.481 277.007C167.795 277.007 172.029 278.117 175.181 280.336C178.423 282.466 180.045 285.351 180.045 288.991C180.045 292.719 178.423 295.737 175.181 298.045C172.029 300.353 167.795 301.507 162.481 301.507Z" fill="#FBFBFB"/>
<path d="M219.014 374.739C214.331 374.739 210.773 374.561 208.341 374.206C205.909 373.762 204.198 373.052 203.207 372.076C202.217 371.099 201.721 369.679 201.721 367.815C201.721 365.418 202.802 363.51 204.964 362.09C206.855 361.024 208.026 359.427 208.476 357.296C209.017 355.166 209.287 351.748 209.287 347.044V332.264C209.287 327.826 208.251 325.119 206.18 324.142C204.558 323.343 203.343 322.589 202.532 321.879C201.721 321.08 201.316 319.97 201.316 318.55C201.316 316.775 201.811 315.399 202.802 314.422C203.883 313.357 205.459 312.336 207.531 311.36C210.683 309.94 214.286 308.83 218.339 308.031C222.482 307.143 226.445 306.7 230.228 306.7C233.02 306.7 235.092 307.188 236.443 308.164C237.884 309.141 238.604 310.916 238.604 313.49V318.017C238.604 319.26 238.829 319.881 239.28 319.881C239.55 319.881 240.406 318.594 241.847 316.02C243.378 313.446 245.72 311.094 248.872 308.963C252.115 306.833 256.483 305.768 261.977 305.768C275.397 305.768 282.963 314.023 284.674 330.533L286.431 347.177C286.791 350.994 287.106 353.701 287.376 355.299C287.737 356.897 288.142 358.184 288.592 359.16C289.133 360.048 289.988 360.936 291.159 361.823C292.15 362.533 292.826 363.377 293.186 364.353C293.636 365.241 293.861 366.395 293.861 367.815C293.861 370.034 292.916 371.721 291.024 372.875C289.133 373.94 285.845 374.517 281.162 374.606C278.009 374.694 273.191 374.739 266.706 374.739C260.941 374.739 256.933 374.25 254.682 373.274C252.43 372.209 251.304 370.478 251.304 368.081C251.304 366.572 251.529 365.418 251.979 364.619C252.52 363.82 253.285 362.977 254.276 362.09C255.537 361.291 256.438 360.359 256.978 359.293C257.519 358.139 257.789 356.453 257.789 354.234C257.789 352.103 257.609 349.795 257.248 347.31L255.897 336.125C255.537 332.486 254.727 329.867 253.466 328.27C252.295 326.672 250.583 325.873 248.332 325.873C245.72 325.873 243.423 327.249 241.441 330.001C239.55 332.664 238.604 336.614 238.604 341.851V346.911C238.604 351.615 238.875 355.033 239.415 357.163C239.955 359.293 241.126 360.936 242.928 362.09C245.179 363.599 246.305 365.507 246.305 367.815C246.305 369.679 245.81 371.099 244.819 372.076C243.918 373.052 242.252 373.762 239.82 374.206C237.388 374.561 233.831 374.739 229.147 374.739H219.014Z" fill="#FBFBFB"/>
<path d="M321.166 374.739C316.752 374.739 313.555 374.25 311.574 373.274C309.592 372.298 308.601 370.611 308.601 368.214C308.601 366.883 308.871 365.818 309.412 365.019C309.952 364.131 310.718 363.243 311.709 362.356C313.69 361.113 314.996 359.293 315.627 356.897C316.257 354.5 316.572 350.994 316.572 346.378V305.768C316.572 301.152 315.536 298.444 313.465 297.645C311.844 296.847 310.628 296.092 309.817 295.382C309.007 294.583 308.601 293.473 308.601 292.053C308.601 290.278 309.097 288.902 310.087 287.926C311.168 286.86 312.744 285.84 314.816 284.863C317.878 283.443 321.436 282.333 325.489 281.534C329.632 280.647 333.64 280.203 337.513 280.203C340.305 280.203 342.377 280.691 343.728 281.668C345.169 282.644 345.89 284.419 345.89 286.994V327.071C345.89 329.468 346.385 330.666 347.376 330.666C348.006 330.666 348.727 330.311 349.537 329.601L356.292 323.743C357.644 322.677 358.229 321.346 358.049 319.748C358.049 318.772 357.463 317.928 356.292 317.218C354.581 316.064 353.726 314.555 353.726 312.691C353.726 310.383 354.671 308.874 356.563 308.164C358.454 307.365 361.156 306.966 364.669 306.966H382.908C385.79 306.966 387.997 307.41 389.528 308.297C391.149 309.096 391.96 310.65 391.96 312.958C391.96 316.597 390.068 318.683 386.285 319.216C383.043 319.571 380.206 320.813 377.774 322.944L374.261 325.873C373 326.849 372.37 327.87 372.37 328.935C372.37 329.646 372.64 330.4 373.18 331.199L387.366 354.766C388.447 356.453 389.393 357.696 390.203 358.495C391.014 359.293 392.005 360.004 393.176 360.625C396.148 362.311 397.634 364.619 397.634 367.549C397.634 369.768 396.643 371.543 394.662 372.875C392.77 374.117 390.248 374.739 387.096 374.739H372.64C367.326 374.739 363.678 374.162 361.697 373.008C359.805 371.765 358.859 370.034 358.859 367.815C358.859 367.194 359.04 366.173 359.4 364.753C359.49 364.397 359.58 363.998 359.67 363.554C359.76 363.11 359.805 362.578 359.805 361.956C359.805 360.891 359.535 359.915 358.995 359.027L352.78 347.31C351.879 345.801 351.069 345.046 350.348 345.046C349.898 345.046 349.312 345.313 348.592 345.845L347.241 346.777C346.7 347.221 346.34 347.798 346.16 348.508C345.98 349.218 345.89 350.284 345.89 351.704V353.035C345.89 354.988 346.16 356.719 346.7 358.228C347.331 359.648 348.502 360.891 350.213 361.956C351.204 362.755 351.969 363.599 352.51 364.486C353.05 365.374 353.32 366.483 353.32 367.815C353.32 370.034 352.375 371.765 350.483 373.008C348.682 374.162 345.394 374.739 340.621 374.739H321.166Z" fill="#FBFBFB"/>
<path d="M152.213 481.557C148.52 481.557 145.908 481.069 144.377 480.093C142.846 479.116 142.08 477.43 142.08 475.033C142.08 473.702 142.396 472.548 143.026 471.571C143.747 470.595 144.647 469.618 145.728 468.642C147.62 467.044 148.881 465.269 149.511 463.316C150.142 461.363 150.457 457.946 150.457 453.063V417.779C150.457 413.341 150.322 410.101 150.051 408.059C149.871 405.929 149.466 404.375 148.836 403.399C148.205 402.334 147.169 401.446 145.728 400.736C144.467 400.026 143.522 399.227 142.891 398.339C142.261 397.363 141.945 396.12 141.945 394.611C141.945 392.658 142.531 391.105 143.702 389.951C144.963 388.797 147.214 388.22 150.457 388.22C156.401 388.22 163.337 388.042 171.263 387.687C178.648 387.332 184.458 387.155 188.691 387.155C203.012 387.155 214.09 389.818 221.926 395.144C229.852 400.381 233.815 407.748 233.815 417.246C233.815 426.656 230.077 434.068 222.602 439.482C215.126 444.808 204.498 447.471 190.717 447.471H185.313C183.422 447.471 182.251 447.782 181.801 448.403C181.35 449.025 181.125 450.267 181.125 452.131V456.392C181.125 459.499 181.53 461.896 182.341 463.582C183.242 465.18 184.953 466.689 187.475 468.109C189.006 468.908 190.132 469.84 190.852 470.905C191.663 471.971 192.068 473.346 192.068 475.033C192.068 477.341 191.258 479.027 189.637 480.093C188.015 481.069 184.863 481.602 180.179 481.69L152.213 481.557ZM187.61 433.224C191.753 433.224 194.906 432.115 197.067 429.896C199.229 427.588 200.31 424.481 200.31 420.575C200.31 414.983 199.004 410.589 196.392 407.393C193.87 404.109 190.582 402.467 186.529 402.467H184.908C183.467 402.467 182.476 402.778 181.936 403.399C181.395 403.931 181.125 405.13 181.125 406.994V429.762C181.125 431.005 181.395 431.893 181.936 432.425C182.566 432.958 183.872 433.224 185.854 433.224H187.61Z" fill="#FBFBFB"/>
<path d="M226.618 481.69C223.736 481.69 221.754 481.025 220.673 479.693C219.592 478.273 219.052 476.72 219.052 475.033C219.052 472.459 220.763 470.062 224.186 467.843C226.077 466.778 227.609 465.491 228.779 463.982C230.04 462.384 231.166 460.253 232.157 457.59L237.561 443.21C245.037 423.771 249.225 412.897 250.126 410.589C251.116 407.837 251.612 405.618 251.612 403.931C251.612 402.6 251.297 401.402 250.666 400.336C249.946 399.094 249.405 397.984 249.045 397.008C248.685 396.031 248.504 394.922 248.504 393.679C248.504 392.17 249.18 390.839 250.531 389.685C251.972 388.442 254.269 387.82 257.421 387.82H270.931C275.615 387.82 279.308 388.486 282.01 389.818C284.802 391.06 286.919 392.747 288.36 394.877C289.801 396.919 291.287 399.759 292.818 403.399C301.555 424.614 308.625 443.077 314.029 458.789C314.84 461.186 315.695 463.005 316.596 464.248C317.587 465.491 318.848 466.556 320.379 467.444C321.55 468.242 322.451 469.174 323.081 470.24C323.802 471.305 324.162 472.769 324.162 474.634C324.162 477.208 323.261 479.027 321.46 480.093C319.749 481.069 317.677 481.557 315.245 481.557H286.738C278.272 481.557 274.039 479.338 274.039 474.9C274.039 472.503 274.985 470.595 276.876 469.174C278.047 468.376 278.948 467.577 279.578 466.778C280.208 465.979 280.524 465.091 280.524 464.115C280.524 463.493 280.389 462.783 280.118 461.984L279.578 460.12C278.677 457.28 276.426 455.86 272.823 455.86H252.963C251.161 455.86 249.765 456.081 248.775 456.525C247.874 456.969 247.153 457.857 246.613 459.188L246.073 460.786C245.712 461.851 245.532 462.916 245.532 463.982C245.532 466.112 246.523 467.665 248.504 468.642C249.765 469.441 250.756 470.328 251.477 471.305C252.287 472.193 252.693 473.435 252.693 475.033C252.693 477.252 251.927 478.939 250.396 480.093C248.955 481.158 247.063 481.69 244.722 481.69H226.618ZM270.121 443.61C271.292 443.61 272.237 443.344 272.958 442.811C273.679 442.278 274.039 441.568 274.039 440.681C274.039 440.414 273.949 440.015 273.769 439.482C270.886 430.606 268.41 423.504 266.338 418.178C266.068 417.38 265.662 416.803 265.122 416.447C264.582 416.004 264.041 415.782 263.501 415.782C262.24 415.782 261.249 416.581 260.529 418.178L252.828 440.015C252.648 440.725 252.557 441.169 252.557 441.346C252.557 442.855 253.909 443.61 256.611 443.61H270.121Z" fill="#FBFBFB"/>
<path d="M369.804 483.155C360.708 483.155 352.466 481.025 345.081 476.764C337.695 472.414 331.886 466.467 327.652 458.922C323.419 451.288 321.303 442.767 321.303 433.357C321.303 424.303 323.374 416.226 327.517 409.124C331.751 402.023 337.425 396.52 344.54 392.614C351.656 388.708 359.447 386.755 367.913 386.755C372.236 386.755 376.47 387.243 380.613 388.22C384.846 389.108 388.674 390.439 392.096 392.214C393.898 393.102 395.834 394.256 397.906 395.676C400.158 397.452 401.914 399.138 403.175 400.736C406.147 404.464 407.633 408.414 407.633 412.586C407.633 416.226 406.417 419.421 403.985 422.173C401.644 424.836 398.131 426.167 393.447 426.167C390.025 426.167 386.917 425.235 384.125 423.371C381.333 421.418 378.676 417.868 376.154 412.719C374.713 409.701 373.182 407.438 371.561 405.929C369.94 404.42 367.823 403.665 365.211 403.665C362.149 403.665 359.717 404.908 357.915 407.393C356.114 409.79 355.213 413.341 355.213 418.045C355.213 428.963 357.285 438.062 361.428 445.341C365.661 452.62 371.876 456.259 380.072 456.259C384.846 456.259 388.809 455.371 391.961 453.596C395.114 451.821 397.455 449.602 398.987 446.939C400.338 445.341 401.959 444.542 403.85 444.542C405.652 444.542 407.228 445.296 408.579 446.805C410.02 448.226 410.741 450.134 410.741 452.531C410.651 456.969 408.984 461.585 405.742 466.378C402.499 471.172 397.771 475.166 391.556 478.362C385.431 481.557 378.181 483.155 369.804 483.155Z" fill="#FBFBFB"/>
<path d="M446.334 481.557C441.38 481.557 437.912 481.069 435.931 480.093C434.039 479.116 433.094 477.43 433.094 475.033C433.094 472.814 434.67 470.683 437.822 468.642C439.534 467.488 440.795 466.378 441.605 465.313C442.506 464.159 443.091 462.695 443.362 460.919C443.722 459.144 443.902 456.525 443.902 453.063V406.594C443.902 403.843 442.866 402.467 440.795 402.467H438.768C436.877 402.467 435.255 403.355 433.904 405.13C432.553 406.816 430.932 409.568 429.041 413.385C427.6 416.403 426.113 418.622 424.582 420.043C423.051 421.463 421.07 422.173 418.638 422.173C414.224 422.173 412.018 419.332 412.018 413.651C412.018 410.189 412.783 405.441 414.314 399.404C415.395 395.144 416.746 391.815 418.368 389.418C419.989 387.022 421.745 385.823 423.637 385.823C424.988 385.823 426.924 386.134 429.446 386.755C433.229 387.82 437.057 388.353 440.93 388.353H477.002C480.155 388.353 482.631 388.22 484.433 387.954C486.234 387.687 488.171 387.288 490.242 386.755C492.314 386.134 494.025 385.823 495.376 385.823C497.358 385.823 499.069 386.8 500.51 388.753C501.951 390.705 503.347 394.256 504.698 399.404C506.319 405.529 507.13 410.367 507.13 413.918C507.13 416.758 506.635 418.844 505.644 420.176C504.653 421.507 503.032 422.173 500.78 422.173C498.258 422.173 496.187 421.463 494.565 420.043C493.034 418.622 491.548 416.403 490.107 413.385C488.216 409.568 486.594 406.816 485.243 405.13C483.982 403.355 482.451 402.467 480.65 402.467H478.894C477.633 402.467 476.687 402.778 476.056 403.399C475.516 403.931 475.246 404.997 475.246 406.594V452.131C475.246 456.037 475.381 458.922 475.651 460.786C475.921 462.65 476.462 464.159 477.272 465.313C478.173 466.378 479.569 467.488 481.461 468.642C483.082 469.53 484.253 470.462 484.973 471.438C485.784 472.326 486.189 473.524 486.189 475.033C486.189 477.518 485.198 479.249 483.217 480.226C481.235 481.202 478.038 481.69 473.625 481.69L446.334 481.557Z" fill="#FBFBFB"/>
<path d="M522.696 483.022C518.553 483.022 515.221 481.868 512.699 479.56C510.177 477.252 508.916 474.145 508.916 470.24C508.916 465.358 510.447 461.319 513.509 458.123C516.572 454.928 520.49 453.33 525.263 453.33C529.587 453.33 533.054 454.617 535.666 457.191C538.368 459.676 539.719 462.961 539.719 467.044C539.719 471.66 538.098 475.477 534.856 478.495C531.613 481.513 527.56 483.022 522.696 483.022Z" fill="#FBFBFB"/>
<path d="M420.562 367.914V370.484L423.388 373.579L425.031 373.053L426.893 371.585L427.638 369.383L429.128 366.813L431.735 362.042L436.204 353.967L441.418 345.891L445.142 340.019L449.239 333.779L452.218 330.475L455.57 329.374L467.488 326.071L474.192 323.502L483.503 318.363L489.834 314.692L495.048 311.022L502.125 305.149L505.849 301.479L506.594 299.276L505.104 300.01H495.793L493.559 299.276L489.834 298.909L488.345 298.542H485.365L484.993 297.808H485.738L497.656 295.239L508.456 291.568L517.395 287.531L520.002 284.961L524.471 280.19L531.175 270.279L537.134 260.002L541.603 251.193L542.348 247.889L541.603 246.788H520.002L520.746 246.054L537.134 239.814L547.562 233.942L549.052 232.473L552.776 224.031L555.383 216.69L559.107 204.211L562.459 192.098L563.949 185.491L564.694 176.682V163.468L562.459 162H559.107L548.307 165.671L537.506 171.176L524.843 177.416L511.808 184.757L500.263 192.098L490.207 200.173L482.386 207.147L475.309 215.589L473.075 220.728L470.095 227.335V245.32L468.606 241.65L464.136 229.904L462.274 228.436L456.688 234.309L451.101 241.65L445.142 251.193L440.673 260.002L434.714 281.291V306.25L435.831 313.224L436.949 319.831L431.735 329.374L426.893 343.689L422.051 359.839L420.562 367.914Z" fill="#FBFBFB"/>
</svg>
